# xmcd
#
# Track frame offsets: 
#        150
#        19956
#        37319
#        60151
#        75374
#        93184
#        105937
#        121328
#        135317
#        151038
#        171609
#        188753
#
# Disc length: 2675 seconds
#
# Revision: 0
# Processed by: cddbd v1.5.2PL0 Copyright (c) Steve Scherf et al.
# Submitted via: ExactAudioCopy v0.99pb5
#
DISCID=880a710c
DTITLE=Brandon Jenkins - Under The Sun
DYEAR=2011
DGENRE=Country
TTITLE0=Under The Sun
TTITLE1=Too Big To Fail
TTITLE2=Lookin' Out For #1
TTITLE3=Crazy Moon
TTITLE4=Heaven Sent
TTITLE5=Anymore
TTITLE6=Charlene (Runnin' With The Devil)
TTITLE7=No Word From You
TTITLE8=Perfect Slave
TTITLE9=No More
TTITLE10=Drag 
TTITLE11=Life Goes On
EXTD=
EXTT0=
EXTT1=
EXTT2=
EXTT3=
EXTT4=
EXTT5=
EXTT6=
EXTT7=
EXTT8=
EXTT9=
EXTT10=
EXTT11=
PLAYORDER=
